<svg width="33" height="33" viewBox="0 0 33 33" fill="none" xmlns="http://www.w3.org/2000/svg">
<g clip-path="url(#clip0_1471_13850)">
<path d="M16.8984 10.1562V16.1562L21.8984 19.1562" stroke="black" stroke-width="1.5" stroke-linecap="round" stroke-linejoin="round"/>
<path d="M9.89844 13.1562H4.89844V8.15625" stroke="black" stroke-width="1.5" stroke-linecap="round" stroke-linejoin="round"/>
<path d="M9.34844 24.1567C10.9209 25.6405 12.8957 26.628 15.0262 26.9959C17.1567 27.3637 19.3484 27.0956 21.3273 26.225C23.3063 25.3544 24.9848 23.9199 26.1532 22.1008C27.3216 20.2817 27.9279 18.1586 27.8966 15.9968C27.8653 13.835 27.1976 11.7304 25.977 9.94593C24.7564 8.16145 23.0369 6.77624 21.0336 5.96336C19.0302 5.15049 16.8317 4.946 14.7128 5.37544C12.5939 5.80489 10.6485 6.84923 9.11969 8.37798C7.64844 9.86798 6.43344 11.273 4.89844 13.1567" stroke="black" stroke-width="1.5" stroke-linecap="round" stroke-linejoin="round"/>
</g>
<defs>
<clipPath id="clip0_1471_13850">
<rect width="32" height="32" fill="white" transform="translate(0.898438 0.15625)"/>
</clipPath>
</defs>
</svg>
