<svg width="279" height="71" viewBox="0 0 279 71" fill="none" xmlns="http://www.w3.org/2000/svg">
<path d="M54.5876 53.8543C58.4446 51.8828 61.5311 48.6818 63.3571 44.7586C65.1825 40.836 65.6425 36.4163 64.6629 32.2027C63.6847 27.9891 61.323 24.2229 57.9544 21.5019C54.5856 18.7816 50.4028 17.2628 46.0703 17.1876C41.7379 17.1117 37.5045 18.4839 34.0427 21.0859C30.5809 23.6872 28.0893 27.369 26.9638 31.546C25.8384 35.723 26.1436 40.1558 27.831 44.1398C29.5184 48.1245 32.4912 51.4309 36.277 53.5351L41.7508 43.7218C40.1569 42.8355 38.9053 41.4437 38.1949 39.7659C37.4844 38.0888 37.3559 36.2221 37.8298 34.4639C38.3036 32.7051 39.3526 31.1549 40.8101 30.0593C42.2676 28.9644 44.05 28.3868 45.874 28.4182C47.6981 28.4502 49.4592 29.0893 50.8775 30.2346C52.2959 31.3799 53.2901 32.966 53.7022 34.7399C54.1143 36.5138 53.9207 38.3747 53.152 40.0262C52.3834 41.6778 51.0839 43.0259 49.46 43.8559L54.5876 53.8543Z" fill="white"/>
<path d="M107.543 29.6548C105.983 25.4451 103.011 21.9046 99.1302 19.6375C95.25 17.3704 90.7014 16.5162 86.2616 17.2213C81.8211 17.9264 77.7627 20.1464 74.7781 23.5032C71.7936 26.8606 70.067 31.1468 69.8934 35.6319C69.7198 40.1169 71.1095 44.5235 73.8254 48.1C76.5413 51.6772 80.4157 54.2033 84.7886 55.2485C89.161 56.2937 93.7613 55.7927 97.806 53.8318C101.85 51.8702 105.088 48.5697 106.968 44.4921L96.7465 39.7964C95.955 41.5127 94.5921 42.9027 92.8892 43.7281C91.1863 44.5542 89.2494 44.7648 87.4089 44.3246C85.5677 43.8851 83.9362 42.8209 82.7928 41.3152C81.6495 39.8088 81.0643 37.9539 81.1377 36.0655C81.2105 34.1772 81.9378 32.3725 83.1938 30.9591C84.4499 29.5462 86.1587 28.6109 88.0287 28.3146C89.8981 28.0177 91.8133 28.3774 93.4468 29.3317C95.0803 30.286 96.3324 31.7767 96.9883 33.5492L107.543 29.6548Z" fill="white"/>
<path d="M65.8231 17.3518L61.8867 7.77404L81.0755 0.161133L87.9632 17.3518L77.3852 21.035L72.2188 34.0506L64.839 36.2607L61.8867 26.6836L77.3852 21.035L74.4328 13.668L65.8231 17.3518Z" fill="white"/>
<path d="M12.254 45.7187H25.025V54.4507H0.824219V13.4102H12.254V45.7187Z" fill="white"/>
<path d="M132.019 54.4501L122.981 41.061V54.4501H111.551V11.3721H122.981V34.5993L132.019 21.7923H145.723L132.836 38.2085L145.957 54.4501H132.019ZM163.245 54.8576C160.29 54.8576 157.647 54.3723 155.314 53.4023C153.021 52.393 151.193 51.0351 149.832 49.3273C148.511 47.5809 147.772 45.6213 147.616 43.4478H158.696C158.852 44.4956 159.338 45.3106 160.154 45.8927C160.97 46.4749 161.981 46.7659 163.186 46.7659C164.119 46.7659 164.859 46.5717 165.402 46.1838C165.947 45.7959 166.219 45.291 166.219 44.6702C166.219 43.8553 165.772 43.2535 164.878 42.8656C163.984 42.4777 162.506 42.0506 160.446 41.5849C158.113 41.1192 156.17 40.5953 154.614 40.0131C153.059 39.431 151.698 38.48 150.532 37.1607C149.405 35.8414 148.841 34.0557 148.841 31.805C148.841 29.8644 149.366 28.118 150.415 26.5658C151.465 24.9744 153.001 23.7134 155.022 22.7819C157.083 21.8505 159.552 21.3848 162.428 21.3848C166.705 21.3848 170.068 22.4327 172.517 24.5283C174.966 26.624 176.385 29.3797 176.774 32.7947H166.452C166.258 31.7468 165.792 30.9515 165.053 30.4079C164.353 29.8258 163.401 29.5347 162.195 29.5347C161.262 29.5347 160.543 29.7093 160.037 30.0586C159.571 30.4079 159.338 30.8932 159.338 31.514C159.338 32.2904 159.785 32.8915 160.679 33.3186C161.573 33.7065 163.012 34.114 164.994 34.5411C167.366 35.0454 169.329 35.6085 170.884 36.2293C172.478 36.85 173.858 37.8592 175.024 39.2564C176.23 40.6149 176.832 42.4777 176.832 44.8449C176.832 46.7463 176.269 48.4541 175.141 49.9677C174.053 51.4812 172.478 52.6841 170.418 53.5769C168.396 54.4305 166.005 54.8576 163.245 54.8576ZM201.754 44.7285V54.4501H196.797C188.439 54.4501 184.259 50.317 184.259 42.0506V31.2811H180.235V21.7923H184.259V13.8753H195.747V21.7923H201.695V31.2811H195.747V42.2253C195.747 43.1181 195.942 43.7584 196.33 44.1463C196.758 44.5342 197.458 44.7285 198.43 44.7285H201.754ZM222.216 54.8576C218.951 54.8576 216.016 54.1787 213.411 52.8201C210.845 51.4616 208.824 49.5216 207.346 46.9988C205.869 44.476 205.13 41.5071 205.13 38.0921C205.13 34.7157 205.869 31.7664 207.346 29.2436C208.862 26.7208 210.903 24.7808 213.469 23.4223C216.074 22.0638 219.009 21.3848 222.275 21.3848C225.54 21.3848 228.456 22.0638 231.022 23.4223C233.627 24.7808 235.668 26.7208 237.145 29.2436C238.661 31.7664 239.419 34.7157 239.419 38.0921C239.419 41.4685 238.661 44.4374 237.145 46.9988C235.668 49.5216 233.627 51.4616 231.022 52.8201C228.417 54.1787 225.482 54.8576 222.216 54.8576ZM222.216 44.9613C223.811 44.9613 225.132 44.3792 226.182 43.2149C227.271 42.012 227.815 40.3042 227.815 38.0921C227.815 35.88 227.271 34.1918 226.182 33.0275C225.132 31.8633 223.83 31.2811 222.275 31.2811C220.72 31.2811 219.417 31.8633 218.368 33.0275C217.318 34.1918 216.793 35.88 216.793 38.0921C216.793 40.3428 217.299 42.0506 218.309 43.2149C219.32 44.3792 220.623 44.9613 222.216 44.9613ZM255.499 26.333C256.394 24.8194 257.657 23.6165 259.29 22.7237C260.922 21.8309 262.847 21.3848 265.063 21.3848C267.668 21.3848 270.02 22.0638 272.119 23.4223C274.258 24.7808 275.929 26.7208 277.134 29.2436C278.378 31.7664 279 34.7157 279 38.0921C279 41.4685 278.378 44.4374 277.134 46.9988C275.929 49.5216 274.258 51.4616 272.119 52.8201C270.02 54.1787 267.668 54.8576 265.063 54.8576C262.847 54.8576 260.922 54.4115 259.29 53.5187C257.696 52.6259 256.432 51.423 255.499 49.9095V70.0514H244.069V21.7923H255.499V26.333ZM267.395 38.0921C267.395 35.9578 266.812 34.3082 265.646 33.1439C264.519 31.9411 263.119 31.3393 261.447 31.3393C259.776 31.3393 258.357 31.9411 257.19 33.1439C256.063 34.3468 255.499 35.9964 255.499 38.0921C255.499 40.2264 256.063 41.8956 257.19 43.0985C258.357 44.3013 259.776 44.9031 261.447 44.9031C263.119 44.9031 264.519 44.3013 265.646 43.0985C266.812 41.8564 267.395 40.1878 267.395 38.0921Z" fill="white"/>
</svg>
